<?xml version="1.0" encoding="UTF-8" standalone="no"?>
<!-- Created with Inkscape (http://www.inkscape.org/) -->

<svg
   width="210mm"
   height="297mm"
   viewBox="0 0 210 297"
   version="1.1"
   id="svg5"
   inkscape:version="1.2.1 (9c6d41e410, 2022-07-14)"
   sodipodi:docname="andreyRublev.svg"
   xmlns:inkscape="http://www.inkscape.org/namespaces/inkscape"
   xmlns:sodipodi="http://sodipodi.sourceforge.net/DTD/sodipodi-0.dtd"
   xmlns="http://www.w3.org/2000/svg"
   xmlns:svg="http://www.w3.org/2000/svg">
  <sodipodi:namedview
     id="namedview7"
     pagecolor="#ffffff"
     bordercolor="#000000"
     borderopacity="0.25"
     inkscape:showpageshadow="2"
     inkscape:pageopacity="0.0"
     inkscape:pagecheckerboard="0"
     inkscape:deskcolor="#d1d1d1"
     inkscape:document-units="mm"
     showgrid="false"
     inkscape:zoom="0.17795471"
     inkscape:cx="663.09006"
     inkscape:cy="1371.1354"
     inkscape:window-width="1366"
     inkscape:window-height="745"
     inkscape:window-x="-8"
     inkscape:window-y="-8"
     inkscape:window-maximized="1"
     inkscape:current-layer="layer2" />
  <defs
     id="defs2" />
  <g
     inkscape:groupmode="layer"
     id="layer3"
     inkscape:label="Слой 3">
    <rect
       style="fill:#00ffff;stroke-width:0.264583"
       id="rect628"
       width="209.73982"
       height="59.925663"
       x="1.5769911"
       y="-3.1539822" />
  </g>
  <g
     inkscape:groupmode="layer"
     id="layer2"
     inkscape:label="Слой 2">
    <path
       style="fill:#008080;stroke-width:0.264583"
       d="M 2.6283185,61.502654 C 7.8849558,48.886726 -0.52566371,46.784069 25.231858,47.835399 c 25.757522,1.051327 62.028317,8.936281 87.260172,4.730972 25.23186,-4.205309 54.14337,5.256638 67.81062,0 13.66726,-5.256636 24.7062,12.615928 27.33452,12.615928 2.62831,0 9.46194,132.992921 0.52566,138.775221 -8.93628,5.7823 -28.91151,-3.15398 -49.93805,2.10265 -21.02655,5.25664 -37.32213,11.56461 -72.541596,8.41062 -35.219467,-3.15398 -48.361059,2.10266 -65.182299,-3.15398 C 3.6796461,206.06017 0.52566371,192.91858 0.52566371,192.91858 Z"
       id="path402" />
    <path
       style="fill:#999999;stroke-width:0.264583"
       d="M 58.348673,211.31681 C 59.4,196.07256 56.77168,198.17522 73.067256,187.13628 c 16.295576,-11.03894 11.564601,-19.44956 26.80885,-26.80885 15.244244,-7.35929 15.244244,-12.09026 24.706194,-14.19292 9.46195,-2.10265 23.1292,2.62832 27.86018,4.73097 4.73097,2.10266 25.23185,12.61593 18.92389,23.12921 -6.30796,10.51327 -23.1292,21.55221 -27.86018,29.43717 -4.73097,7.88495 -56.771679,12.09026 -71.490261,9.98761 -14.718586,-2.10266 -13.667256,-2.10266 -13.667256,-2.10266 z"
       id="path404" />
    <circle
       style="fill:#800080;stroke-width:0.389093"
       id="path792"
       cx="142.7177"
       cy="233.13185"
       r="45.995575" />
    <ellipse
       style="fill:#f9f9f9;stroke-width:0.431531"
       id="path846"
       cx="142.65199"
       cy="232.77396"
       rx="40.295414"
       ry="41.15276" />
    <rect
       style="fill:#ff00ff;stroke-width:0.264583"
       id="rect1006"
       width="37.847786"
       height="43.104427"
       x="125.10796"
       y="212.8938" />
    <rect
       style="fill:#000080;stroke-width:0.264583"
       id="rect1112"
       width="41.527435"
       height="8.4106197"
       x="122.47964"
       y="246.53627" />
    <rect
       style="fill:#0000ff;stroke-width:0.264583"
       id="rect1114"
       width="16.295576"
       height="9.9876108"
       x="120.90266"
       y="263.88318" />
    <rect
       style="fill:#0000ff;stroke-width:0.264583"
       id="rect1168"
       width="16.295576"
       height="8.4106197"
       x="151.39114"
       y="264.40884" />
    <rect
       style="fill:#800080;stroke-width:0.226575"
       id="rect1170"
       width="5.7823005"
       height="85.683182"
       x="140.87787"
       y="189.76459" />
    <rect
       style="fill:#800080;stroke-width:0.3186"
       id="rect1172"
       width="15.244247"
       height="22.60354"
       x="83.580528"
       y="225.50974" />
    <rect
       style="fill:#800080;stroke-width:0.3186"
       id="rect1172-0"
       width="15.244247"
       height="22.60354"
       x="185.82211"
       y="224.19557" />
    <rect
       style="fill:#800080;stroke-width:0.264583"
       id="rect1196"
       width="8.4106197"
       height="36.270794"
       x="87.260178"
       y="247.06195" />
    <rect
       style="fill:#800080;stroke-width:0.264583"
       id="rect1198"
       width="11.564602"
       height="38.373451"
       x="186.61063"
       y="244.95929" />
    <rect
       style="fill:#800080;stroke-width:0.264583"
       id="rect1200"
       width="28.385838"
       height="7.8849554"
       x="75.695572"
       y="282.8071" />
    <rect
       style="fill:#800080;stroke-width:0.264583"
       id="rect1202"
       width="29.962833"
       height="9.4619465"
       x="172.41771"
       y="281.75577" />
    <rect
       style="fill:#800080;stroke-width:0.264583"
       id="rect1204"
       width="12.090265"
       height="16.295576"
       x="104.60707"
       y="209.73982" />
    <rect
       style="fill:#800080;stroke-width:0.264583"
       id="rect1206"
       width="7.359292"
       height="16.821239"
       x="172.41771"
       y="210.26549" />
  </g>
  <g
     inkscape:label="Слой 1"
     inkscape:groupmode="layer"
     id="layer1">
    <path
       style="fill:#999999;stroke-width:0.264583"
       d="M 30.488495,88.837168 C 18.923894,77.272564 25.231858,67.81062 31.014159,68.336283 c 5.782302,0.525664 23.654866,-2.62832 22.077875,3.153982 -1.57699,5.782299 0,13.667256 -8.410619,17.346903 -8.41062,3.679645 -14.19292,0 -14.19292,0 z"
       id="path113" />
    <path
       style="fill:#808080;stroke-width:0.264583"
       d="m 28.385841,95.670795 c -6.307965,-4.730972 -1.576991,-14.192919 1.576991,-13.667256 3.153981,0.525664 13.141592,-3.153981 18.923894,-1.051327 5.782299,2.102654 11.038938,2.628318 11.038938,6.833626 0,4.205312 -4.730975,11.564604 -9.987611,14.192922 -5.256638,2.62832 -12.615928,5.7823 -16.295576,3.15398 -3.679645,-2.62832 -5.256636,-9.461945 -5.256636,-9.461945 z"
       id="path169" />
    <path
       style="fill:#cccccc;stroke-width:0.264583"
       d="m 51.515044,73.592919 c 4.730972,-6.307965 21.026548,-17.346903 23.129202,-9.98761 2.102655,7.359292 7.884957,13.667255 6.307966,21.026548 -1.576991,7.359293 -10.513274,25.231863 -14.718585,20.500883 -4.205309,-4.73097 -11.564602,-2.10265 -13.141593,-7.359291 -1.57699,-5.256636 -1.57699,-24.18053 -1.57699,-24.18053 z"
       id="path225" />
    <path
       style="fill:#666666;stroke-width:0.264583"
       d="m 29.437168,124.5823 c -10.513274,-8.41062 -9.461947,-22.07788 -4.730974,-22.60354 4.730974,-0.52566 6.833629,-6.307965 13.667258,-2.628318 6.833626,3.679648 16.821237,3.153978 18.398228,9.461948 1.576993,6.30796 0,8.93628 -5.256636,13.66726 -5.256639,4.73097 -22.077876,2.10265 -22.077876,2.10265 z"
       id="path281" />
    <path
       style="fill:#808080;stroke-width:0.264583"
       d="M 31.014159,154.54513 C 10.513274,149.81416 9.4619468,142.45487 15.244248,135.62124 c 5.7823,-6.83363 13.667257,-14.71859 19.449556,-12.61593 5.782302,2.10265 12.615931,-1.57699 16.82124,3.67964 4.205308,5.25664 11.038938,2.62832 8.41062,10.51328 -2.628321,7.88495 -5.782302,18.39823 -10.513275,20.50088 -4.730974,2.10266 -18.39823,-3.15398 -18.39823,-3.15398 z"
       id="path337" />
    <path
       style="fill:#999999;stroke-width:0.264583"
       d="m 51.515044,115.12035 c -4.730975,-8.41062 -4.730975,-16.821237 2.102654,-16.821237 6.833629,0 14.192922,2.628317 20.500885,5.782297 6.307965,3.15399 6.307965,1.577 6.307965,11.56461 0,9.98761 -0.525663,14.19292 -8.410619,14.19292 -7.884957,0 -12.615929,8.41062 -16.295577,4.73097 -3.679645,-3.67965 -12.615928,-5.7823 -12.090265,-12.09026 0.525664,-6.30797 7.884957,-7.3593 7.884957,-7.3593 z"
       id="path339" />
    <path
       style="fill:#4d4d4d;stroke-width:0.264583"
       d="m 79.375221,115.64602 c 17.346901,-6.30797 24.180529,-0.52567 25.757519,9.98761 1.57699,10.51327 7.88496,26.28318 0.52567,27.86017 -7.359297,1.57699 -8.936288,8.41062 -16.821242,2.62832 -7.884956,-5.7823 -27.860177,-7.35929 -23.654869,-14.19292 4.205312,-6.83363 14.192922,-26.28318 14.192922,-26.28318 z"
       id="path341" />
    <path
       style="fill:#4d4d4d;stroke-width:0.264583"
       d="M 19.975221,181.87964 C 8.9362832,177.67433 6.3079645,165.58407 9.4619468,160.85309 c 3.1539822,-4.73097 5.7823012,-23.65486 10.5132742,-19.44955 4.730973,4.20531 15.76991,3.15398 21.552212,6.30796 5.782302,3.15398 13.667256,7.88496 15.76991,14.19292 C 59.4,168.21239 65.182299,173.99469 59.4,176.09734 53.617698,178.2 48.886726,193.96991 41.00177,190.29026 33.116813,186.61062 19.975221,181.87964 19.975221,181.87964 Z"
       id="path397" />
    <path
       style="fill:#999999;stroke-width:0.264583"
       d="m 65.707963,167.16106 c 1.576991,-12.61593 8.41062,-7.88496 18.39823,-9.98761 9.987611,-2.10266 13.141593,-2.62832 21.552217,2.10265 8.41062,4.73098 8.93628,3.67965 7.35929,13.1416 -1.57699,9.46194 1.57699,16.82124 -11.03894,20.50088 -12.615928,3.67965 -23.654866,-0.52566 -31.539822,-4.73097 -7.884956,-4.20531 -4.730975,-21.02655 -4.730975,-21.02655 z"
       id="path399" />
    <path
       style="fill:#008000;stroke-width:0.264583"
       d="m 172.4177,161.90442 c -5.25664,-12.09026 -3.67965,-15.76991 -1.577,-26.80885 2.10266,-11.03893 2.62833,-8.41062 5.25664,-23.65486 2.62832,-15.244252 6.30797,-26.283189 5.7823,-29.437171 -0.52566,-3.153981 7.88496,-2.628318 6.83363,2.102654 -1.05133,4.730975 -9.46195,34.168137 -9.46195,41.001767 0,6.83363 -1.57699,30.4885 -0.52566,38.89912 1.05133,8.41062 -6.30796,-2.10266 -6.30796,-2.10266 z"
       id="path514" />
    <path
       style="fill:#008000;stroke-width:0.264583"
       d="m 176.09734,103.55575 c -5.7823,-17.346902 -3.67964,-16.821239 -14.71858,-14.192918 -11.03894,2.628318 -28.38584,11.038938 -21.55221,15.769908 6.83362,4.73098 13.14159,12.09027 20.50088,8.41062 7.35929,-3.67964 15.76991,-9.98761 15.76991,-9.98761 z"
       id="path570" />
    <path
       style="fill:#008000;stroke-width:0.264583"
       d="m 180.30265,130.3646 c 16.82124,-12.09027 17.87257,-12.09027 22.60354,-5.25664 4.73098,6.83363 13.1416,18.9239 4.20531,19.44956 -8.93628,0.52566 -8.41062,-3.67964 -16.29557,-4.20531 -7.88496,-0.52566 -10.51328,-9.98761 -10.51328,-9.98761 z"
       id="path572" />
    <path
       style="fill:#008000;stroke-width:0.264583"
       d="m 185.55929,96.196458 c -2.10265,-13.667255 13.66726,-7.884956 15.76991,-7.35929 2.10266,0.525664 11.5646,16.295572 4.73097,16.821242 -6.83362,0.52566 -18.92389,-0.52567 -18.92389,-0.52567 z"
       id="path574" />
    <ellipse
       style="fill:#ffff00;stroke-width:0.264583"
       id="path734"
       cx="183.98228"
       cy="21.815044"
       rx="9.9876108"
       ry="10.250443" />
  </g>
</svg>
